REM MD5 8aa9bb2049389e8a2ca4dac2a0d924c7
FILE "Katalog Spezial Demo (Germany).bin" BINARY
  TRACK 01 MODE2/2352
    INDEX 01 00:00:00
  TRACK 02 AUDIO
    INDEX 00 49:00:18
    INDEX 01 49:02:18
  TRACK 03 AUDIO
    INDEX 00 50:49:02
    INDEX 01 50:51:02
  TRACK 04 AUDIO
    INDEX 00 52:09:56
    INDEX 01 52:11:56
  TRACK 05 AUDIO
    INDEX 00 54:07:47
    INDEX 01 54:09:47
REM LEADOUT 57:11:04
